<svg width="65" height="56" viewBox="0 0 65 56" fill="none" xmlns="http://www.w3.org/2000/svg">
<path d="M3.38408 5.43786L46.7937 5.60542C46.8133 5.60469 46.8327 5.6095 46.8498 5.6193C46.8669 5.6291 46.8809 5.64351 46.8903 5.66092C46.8997 5.67832 46.9041 5.69803 46.9031 5.71783C46.902 5.73763 46.8955 5.75673 46.8842 5.77299L33.9338 28.5616V28.6683L36.8469 33.7409C36.8581 33.7566 36.8728 33.7694 36.8899 33.7782C36.9069 33.7871 36.9258 33.7917 36.945 33.7917C36.9642 33.7917 36.9831 33.7871 37.0001 33.7782C37.0172 33.7694 37.0319 33.7566 37.0431 33.7409L56.1065 0.228159C56.119 0.210841 56.1261 0.190106 56.1268 0.168666C56.1275 0.147226 56.1218 0.126074 56.1103 0.107977C56.0989 0.0898789 56.0823 0.0756722 56.0628 0.0672187C56.0433 0.0587651 56.0217 0.0564599 56.0008 0.0605942H0.335143C0.315512 0.0598613 0.296068 0.0646672 0.278993 0.0744707C0.261918 0.0842742 0.247888 0.0986837 0.238481 0.116089C0.229075 0.133494 0.224668 0.153205 0.225745 0.173001C0.226822 0.192797 0.233346 0.211898 0.244585 0.228159L3.26333 5.43786C3.28237 5.44625 3.30294 5.45057 3.32372 5.45057C3.3445 5.45057 3.36504 5.44625 3.38408 5.43786V5.43786Z" fill="#116EC1"/>
<path d="M35.6395 50.8784L13.9499 13.4052C13.9373 13.3805 13.931 13.3531 13.9315 13.3254C13.932 13.2977 13.9394 13.2706 13.9528 13.2464C13.9663 13.2223 13.9855 13.2019 14.0087 13.187C14.0318 13.1722 14.0583 13.1634 14.0857 13.1614H40.0318C40.0754 13.1792 40.1241 13.1792 40.1677 13.1614L43.2619 7.81462C43.278 7.78957 43.2873 7.76062 43.2886 7.73076C43.2899 7.7009 43.2833 7.67121 43.2695 7.64479C43.2556 7.61837 43.235 7.59618 43.2098 7.58051C43.1846 7.56484 43.1556 7.55626 43.126 7.55566H4.60684C4.57945 7.55764 4.55299 7.56644 4.5298 7.58127C4.50661 7.5961 4.48743 7.61651 4.47397 7.64065C4.46051 7.6648 4.45318 7.69195 4.45267 7.71965C4.45215 7.74735 4.45845 7.77475 4.471 7.7994L31.6397 55.3113C31.7198 55.4403 31.8311 55.5467 31.9631 55.6205C32.0951 55.6942 32.2435 55.7329 32.3944 55.7329C32.5453 55.7329 32.6937 55.6942 32.8257 55.6205C32.9577 55.5467 33.069 55.4403 33.1491 55.3113L35.5339 51.1222C35.5586 51.116 35.5816 51.1042 35.6011 51.0876C35.6206 51.0711 35.6361 51.0502 35.6463 51.0267C35.6565 51.0031 35.6612 50.9775 35.6601 50.9518C35.6589 50.9261 35.6519 50.901 35.6395 50.8784V50.8784Z" fill="#116EC1"/>
<path d="M58.705 0L37.1484 37.7016C37.1372 37.7174 37.1225 37.7302 37.1054 37.739C37.0884 37.7478 37.0695 37.7525 37.0503 37.7525C37.0311 37.7525 37.0122 37.7478 36.9951 37.739C36.9781 37.7302 36.9634 37.7174 36.9522 37.7016L24.1074 15.2633C24.0733 15.2505 24.0358 15.2505 24.0018 15.2633H17.753C17.735 15.2665 17.7181 15.2737 17.7033 15.2844C17.6885 15.295 17.6763 15.309 17.6676 15.3251C17.6589 15.3412 17.6539 15.3591 17.653 15.3774C17.6521 15.3957 17.6553 15.414 17.6624 15.4309L36.7862 48.9436C36.7955 48.9594 36.8088 48.9725 36.8247 48.9815C36.8406 48.9906 36.8585 48.9953 36.8767 48.9953C36.8949 48.9953 36.9129 48.9906 36.9287 48.9815C36.9446 48.9725 36.9579 48.9594 36.9673 48.9436L64.977 0.167536C64.9841 0.150636 64.9873 0.132345 64.9864 0.114017C64.9855 0.0956891 64.9805 0.077805 64.9718 0.0616952C64.9631 0.0455855 64.9509 0.0316584 64.9361 0.0209721C64.9213 0.0102858 64.9044 0.00310804 64.8865 -2.86736e-05H58.849C58.8126 -4.69079e-05 58.8171 0 58.7805 -2.86736e-05C58.7805 -2.86736e-05 58.7805 -3.80924e-05 58.705 0Z" fill="#17A1E5"/>
</svg>
