<svg xmlns="http://www.w3.org/2000/svg" viewBox="0 0 92.604 25.68" fill="none">
  <g transform="translate(29.124,3.495) scale(0.999904,0.999844)">
    <path d="M5.74966 5.01367L8.55372 0H11.484L6.03707 9.42965C6.00583 9.47693 5.96297 9.51536 5.91264 9.54122C5.8623 9.56709 5.80617 9.57952 5.74966 9.57732H5.58141C5.52489 9.57952 5.46877 9.56709 5.41843 9.54122C5.36809 9.51536 5.32524 9.47693 5.294 9.42965C5.294 9.42965 -0.0968183 0.00703331 0.00132396 0.00703331H2.80539L5.65151 5.02071L5.74966 5.01367Z" fill="white"/>
  </g>
  <g transform="translate(29.142,14.548) scale(0.999518,0.999984)">
    <path d="M5.73563 5.01368L8.53969 0H11.4699L6.03707 9.44372C6.00582 9.49101 5.96297 9.52943 5.91263 9.5553C5.86229 9.58116 5.80616 9.59358 5.74965 9.59138H5.58141C5.52489 9.59358 5.46877 9.58116 5.41843 9.5553C5.36809 9.52943 5.32523 9.49101 5.29399 9.44372C5.29399 9.44372 -0.0968182 0.0210946 0.00132396 0.0210946H2.80539L5.63048 5.01368H5.73563Z" fill="white"/>
  </g>
  <g transform="translate(41.903,3.495) scale(1.000520,0.999942)">
    <path d="M0 9.31024V0.260303C0.00134329 0.226798 0.0094948 0.193923 0.0239605 0.163693C0.0384261 0.133463 0.0588973 0.106516 0.0841183 0.0845076C0.108697 0.0569047 0.139014 0.0350466 0.172927 0.0204675C0.20684 0.00588837 0.243529 -0.00105366 0.280407 0.00012938H2.08201C2.11982 -0.000280219 2.15732 0.00698042 2.19225 0.0214814C2.22719 0.0359825 2.25884 0.0574209 2.28531 0.0845076C2.31053 0.106516 2.331 0.133463 2.34547 0.163693C2.35993 0.193923 2.36808 0.226798 2.36943 0.260303V9.31024C2.36808 9.34374 2.35993 9.37662 2.34547 9.40685C2.331 9.43708 2.31053 9.46402 2.28531 9.48603C2.2585 9.51219 2.22662 9.53254 2.19165 9.54585C2.15669 9.55915 2.11937 9.56512 2.08201 9.56338H0.280407C0.244064 9.56545 0.207701 9.55961 0.17382 9.54626C0.13994 9.5329 0.109339 9.51236 0.0841183 9.48603C0.0588973 9.46402 0.0384261 9.43708 0.0239605 9.40685C0.0094948 9.37662 0.00134329 9.34374 0 9.31024V9.31024Z" fill="white"/>
  </g>
  <g transform="translate(55.396,3.487) scale(0.999385,0.999998)">
    <path d="M2.70592 9.28901V2.0111H0.280408C0.20553 2.01092 0.133272 1.98343 0.0771129 1.93375C0.0526419 1.91006 0.033196 1.88165 0.0199448 1.85023C0.00669357 1.81881 -8.99857e-05 1.78503 9.01331e-07 1.75092V0.260179C-8.99857e-05 0.226065 0.00669357 0.192282 0.0199448 0.160865C0.033196 0.129447 0.0526419 0.10104 0.0771129 0.0773502C0.133272 0.0276696 0.20553 0.000176512 0.280408 0H7.48684C7.56172 0.000176512 7.63397 0.0276696 7.69013 0.0773502C7.71657 0.0998533 7.73779 0.127872 7.75232 0.159448C7.76685 0.191025 7.77433 0.225401 7.77426 0.260179V1.75092C7.77433 1.78569 7.76685 1.82007 7.75232 1.85165C7.73779 1.88322 7.71657 1.91124 7.69013 1.93375C7.63397 1.98343 7.56172 2.01092 7.48684 2.0111H5.1104V9.30307C5.11013 9.33751 5.10174 9.3714 5.0859 9.40195C5.07006 9.43251 5.04722 9.45887 5.01927 9.47887C4.99519 9.50522 4.96596 9.52631 4.93339 9.54083C4.90083 9.55535 4.86563 9.56299 4.82999 9.56325H3.00735C2.93355 9.56146 2.86327 9.53124 2.81107 9.47887C2.77985 9.45779 2.75404 9.42961 2.73576 9.39661C2.71748 9.36361 2.70726 9.32674 2.70592 9.28901Z" fill="white"/>
  </g>
  <g transform="translate(64.795,3.318) scale(1.000483,1.000164)">
    <path d="M9.32792e-06 6.08283V0.274557C0.00135262 0.241052 0.00950413 0.208177 0.0239698 0.177947C0.0384355 0.147717 0.0589067 0.12077 0.0841277 0.0987617C0.137029 0.0483408 0.207442 0.0205926 0.280411 0.0214114H2.12408C2.19816 0.0189831 2.27054 0.0440156 2.32738 0.0917284C2.35381 0.114231 2.37503 0.14225 2.38956 0.173827C2.40409 0.205403 2.41158 0.239779 2.4115 0.274557V5.97735C2.40268 6.19337 2.44362 6.40852 2.53116 6.60609C2.6187 6.80365 2.75047 6.97831 2.91623 7.1165C3.2997 7.40905 3.77402 7.55602 4.25517 7.53138C4.73802 7.55233 5.21332 7.40582 5.60112 7.1165C5.77072 6.98044 5.9065 6.80672 5.99774 6.60903C6.08898 6.41135 6.13319 6.1951 6.12688 5.97735V0.274557C6.12516 0.235078 6.13323 0.195786 6.15036 0.1602C6.16748 0.124613 6.19314 0.0938412 6.22502 0.0706338C6.27863 0.0221156 6.34919 -0.00316179 6.4213 0.000316839H8.26498C8.30122 -0.000870209 8.33733 0.00537489 8.37108 0.0186753C8.40483 0.0319758 8.43551 0.0520519 8.46126 0.0776671C8.48845 0.0984045 8.51071 0.124923 8.52647 0.155318C8.54222 0.185712 8.55108 0.219229 8.5524 0.253462V6.06173C8.55597 6.56185 8.44463 7.05608 8.22701 7.50607C8.0094 7.95605 7.69136 8.3497 7.29757 8.65647C6.43415 9.33449 5.36922 9.70288 4.27269 9.70288C3.17616 9.70288 2.11123 9.33449 1.24782 8.65647C0.858131 8.35117 0.543139 7.96058 0.326883 7.51455C0.110626 7.06851 -0.00117603 6.57881 9.32792e-06 6.08283V6.08283Z" fill="white"/>
  </g>
  <g transform="translate(74.120,3.338) scale(0.999432,1.000017)">
    <path d="M0.288884 9.69767C0.241508 9.70128 0.193953 9.69361 0.150095 9.67528C0.106238 9.65695 0.0673199 9.62848 0.0365183 9.5922C0.0126904 9.5556 0 9.51284 0 9.46914C0 9.42543 0.0126904 9.38267 0.0365183 9.34608L4.72631 0.148478C4.74993 0.100718 4.78724 0.0611385 4.83346 0.0348235C4.87968 0.00850855 4.9327 -0.00333847 4.98568 0.000810455H5.1329C5.18489 -0.00285559 5.23676 0.00927232 5.28178 0.0356122C5.32679 0.061952 5.36286 0.101282 5.38527 0.148478L10.075 9.34608C10.1029 9.381 10.1181 9.4244 10.1181 9.46914C10.1181 9.51387 10.1029 9.55728 10.075 9.5922C10.0461 9.62885 10.0085 9.65768 9.96569 9.67609C9.92285 9.69451 9.87611 9.70193 9.8297 9.69767H8.1683C8.05737 9.69908 7.94846 9.66786 7.85502 9.60787C7.76159 9.54789 7.68772 9.46177 7.64254 9.36015L7.10275 8.27724H3.02986L2.49007 9.3742C2.44421 9.47728 2.36777 9.56366 2.27116 9.62155C2.17456 9.67944 2.06251 9.70602 1.95029 9.69767H0.288884ZM3.91313 6.42085H6.19143L5.04877 4.16364L3.91313 6.42085Z" fill="white"/>
  </g>
  <g transform="translate(76.704,14.430) scale(1.000056,0.999957)">
    <path d="M2.71116e-06 9.30339V0.260501C-0.000162759 0.224686 0.00724792 0.189237 0.021749 0.156509C0.0362501 0.123781 0.0575081 0.0945154 0.0841212 0.0706391C0.137726 0.0221209 0.208287 -0.00316184 0.280405 0.000316782H2.068C2.13854 0.00129694 2.20613 0.0289169 2.25727 0.0776671C2.28464 0.0998125 2.30693 0.127605 2.32265 0.159148C2.33838 0.190692 2.34717 0.225256 2.34841 0.260501V7.55248H6.93305C6.96924 7.55169 7.00523 7.55813 7.03892 7.57141C7.07262 7.58468 7.10335 7.60454 7.12933 7.62983C7.15577 7.65233 7.17699 7.68034 7.19152 7.71192C7.20605 7.7435 7.21353 7.77787 7.21345 7.81265V9.30339C7.21353 9.33817 7.20605 9.37254 7.19152 9.40412C7.17699 9.4357 7.15577 9.46372 7.12933 9.48622C7.10335 9.51151 7.07262 9.53137 7.03892 9.54465C7.00523 9.55793 6.96924 9.56436 6.93305 9.56357H0.315458C0.279264 9.56436 0.243277 9.55793 0.209582 9.54465C0.175887 9.53137 0.145157 9.51151 0.119174 9.48622C0.0862587 9.46744 0.0582832 9.44105 0.0375587 9.40926C0.0168341 9.37747 0.00395846 9.34117 2.71116e-06 9.30339V9.30339Z" fill="white"/>
  </g>
  <g transform="translate(85.418,3.475) scale(0.999748,0.999949)">
    <path d="M0.000111161 9.30314V0.260237C3.26797e-05 0.22546 0.00752101 0.191084 0.02205 0.159507C0.036579 0.12793 0.057806 0.0999174 0.0842403 0.0774143C0.110223 0.0521278 0.140953 0.0322694 0.174648 0.0189912C0.208343 0.00571306 0.24433 -0.000720752 0.280524 6.40531e-05H2.06812C2.14192 0.00186089 2.2122 0.0320724 2.2644 0.0844423C2.2903 0.105867 2.31123 0.132691 2.32575 0.163048C2.34028 0.193405 2.34805 0.226568 2.34852 0.260237V7.55925H6.89811C6.97023 7.55577 7.04079 7.58105 7.09439 7.62957C7.12083 7.65207 7.14204 7.68009 7.15657 7.71166C7.1711 7.74324 7.17859 7.77762 7.17851 7.81239V9.30314C7.17961 9.33808 7.17258 9.37278 7.15798 9.40452C7.14337 9.43625 7.12161 9.46414 7.09439 9.48597C7.06917 9.5123 7.03857 9.53284 7.00469 9.54619C6.97081 9.55954 6.93445 9.56539 6.89811 9.56332H0.280524C0.244181 9.56539 0.207823 9.55954 0.173942 9.54619C0.140062 9.53284 0.109461 9.5123 0.0842403 9.48597C0.0570265 9.46414 0.0352503 9.43625 0.0206487 9.40452C0.00604712 9.37278 -0.000985679 9.33808 0.000111161 9.30314Z" fill="white"/>
  </g>
  <g transform="translate(50.821,14.563) scale(0.999497,0.999949)">
    <path d="M0 9.30322V0.260322C0.00134329 0.226817 0.00950016 0.193942 0.0239658 0.163712C0.0384315 0.133482 0.0589028 0.106535 0.0841238 0.0845269C0.110064 0.0567501 0.141616 0.0348516 0.176676 0.0202991C0.211737 0.00574657 0.249491 -0.00112064 0.287414 0.000148742H2.06799C2.14287 0.000325254 2.21513 0.0278184 2.27129 0.077499C2.29772 0.100002 2.31894 0.128015 2.33347 0.159592C2.348 0.191168 2.35549 0.225545 2.35541 0.260322V3.70591H6.63862V0.260322C6.63854 0.225545 6.64602 0.191168 6.66055 0.159592C6.67508 0.128015 6.6963 0.100002 6.72273 0.077499C6.74872 0.0522125 6.77945 0.032354 6.81314 0.0190759C6.84684 0.00579775 6.88283 -0.000636063 6.91902 0.000148742H8.70661C8.74442 -0.000260857 8.78192 0.00699978 8.81685 0.0215008C8.85179 0.0360018 8.88344 0.0574403 8.9099 0.0845269C8.93418 0.106889 8.95356 0.134065 8.96683 0.164324C8.9801 0.194582 8.98698 0.227264 8.98702 0.260322V9.30322C8.98797 9.33746 8.98157 9.37151 8.96827 9.40305C8.95497 9.43459 8.93506 9.4629 8.9099 9.48606C8.88309 9.51221 8.85122 9.53257 8.81626 9.54587C8.78129 9.55918 8.74397 9.56515 8.70661 9.56341H6.91902C6.84691 9.56688 6.77634 9.5416 6.72273 9.49308C6.69538 9.46982 6.67361 9.44068 6.65904 9.4078C6.64448 9.37493 6.6375 9.33918 6.63862 9.30322V5.70294H2.35541V9.29619C2.35653 9.33215 2.34955 9.36789 2.33499 9.40076C2.32042 9.43364 2.29865 9.4628 2.27129 9.48606C2.21445 9.53377 2.14207 9.5588 2.06799 9.55637H0.287414C0.25001 9.55854 0.212573 9.55277 0.177543 9.53945C0.142513 9.52612 0.110682 9.50552 0.0841238 9.47902C0.0589028 9.45701 0.0384315 9.43006 0.0239658 9.39983C0.00950016 9.3696 0.00134329 9.33673 0 9.30322Z" fill="white"/>
  </g>
  <g transform="translate(62.054,14.563) scale(1.000520,0.999934)">
    <path d="M0 9.30322V0.260322C0.00134329 0.226817 0.00950015 0.193942 0.0239658 0.163712C0.0384315 0.133482 0.0589027 0.106535 0.0841237 0.084527C0.110588 0.0574403 0.142237 0.0360018 0.177174 0.0215008C0.21211 0.00699978 0.249612 -0.000260857 0.287419 0.000148742H2.08201C2.11994 -0.00112065 2.15769 0.00574657 2.19275 0.0202991C2.22781 0.0348516 2.25937 0.0567502 2.28531 0.084527C2.31053 0.106535 2.331 0.133482 2.34547 0.163712C2.35993 0.193942 2.36808 0.226817 2.36943 0.260322V9.30322C2.36905 9.33793 2.36136 9.37216 2.34686 9.40367C2.33236 9.43517 2.31139 9.46326 2.28531 9.48606C2.25875 9.51257 2.22691 9.53315 2.19188 9.54648C2.15685 9.55981 2.11942 9.56558 2.08201 9.56341H0.287419C0.25006 9.56515 0.21274 9.55918 0.177773 9.54588C0.142805 9.53257 0.110934 9.51221 0.0841237 9.48606C0.0580445 9.46326 0.0370677 9.43517 0.0225699 9.40367C0.00807211 9.37216 0.000379218 9.33793 0 9.30322V9.30322Z" fill="white"/>
  </g>
  <g transform="translate(66.036,14.430) scale(0.999938,0.999831)">
    <path d="M1.58498 8.41058C1.08742 7.97757 0.688419 7.44238 0.414966 6.84125C0.141513 6.24012 0 5.58708 0 4.92632C0 4.26557 0.141513 3.61253 0.414966 3.0114C0.688419 2.41027 1.08742 1.87508 1.58498 1.44206C2.61035 0.542219 3.91831 0.0323331 5.28036 0.00148628C6.64241 -0.0293605 7.97197 0.420789 9.03678 1.2733C9.07033 1.29228 9.09824 1.31986 9.11766 1.35322C9.13708 1.38658 9.14732 1.42453 9.14732 1.46316C9.14732 1.50179 9.13708 1.53973 9.11766 1.57309C9.09824 1.60646 9.07033 1.63404 9.03678 1.65302L7.87309 2.75701C7.84941 2.78394 7.82029 2.80553 7.78766 2.8203C7.75502 2.83508 7.71963 2.84272 7.68383 2.84272C7.64802 2.84272 7.61263 2.83508 7.57999 2.8203C7.54736 2.80553 7.51823 2.78394 7.49455 2.75701C6.92422 2.29307 6.20985 2.04426 5.47562 2.05383C5.08732 2.04201 4.70068 2.10947 4.33916 2.2521C3.97765 2.39474 3.64879 2.60958 3.37257 2.88359C3.10474 3.13856 2.89238 3.44634 2.74882 3.78759C2.60526 4.12885 2.5336 4.49619 2.53836 4.86655C2.53311 5.23518 2.60602 5.60072 2.75225 5.93895C2.89848 6.27717 3.11471 6.58036 3.38659 6.82843C3.66562 7.0976 3.99527 7.30835 4.35634 7.4484C4.71741 7.58844 5.10267 7.65498 5.48964 7.64412C6.21277 7.66208 6.92025 7.4313 7.49455 6.99016C7.5195 6.96287 7.54983 6.9411 7.58362 6.9262C7.61741 6.9113 7.65392 6.9036 7.69083 6.9036C7.72774 6.9036 7.76424 6.9113 7.79803 6.9262C7.83182 6.9411 7.86216 6.96287 7.88712 6.99016L9.05781 8.12228C9.18399 8.24182 9.17698 8.36136 9.05781 8.48793C8.05629 9.3766 6.75622 9.8515 5.41954 9.81694C4.00921 9.85656 2.63722 9.35337 1.58498 8.41058Z" fill="white"/>
  </g>
  <g transform="translate(85.307,14.430) scale(0.999426,0.999965)">
    <path d="M0.00156522 9.30345V0.260564C0.00139975 0.22475 0.00881042 0.189301 0.0233115 0.156572C0.0378126 0.123844 0.0590705 0.0945791 0.0856836 0.0707028C0.141825 0.0217598 0.21469 -0.00344989 0.288973 0.00038045H7.01171C7.08383 -0.00309817 7.15439 0.0221845 7.208 0.0707028C7.23461 0.0945791 7.25587 0.123844 7.27037 0.156572C7.28487 0.189301 7.29228 0.22475 7.29211 0.260564V1.7513C7.29219 1.78608 7.28471 1.82046 7.27018 1.85203C7.25565 1.88361 7.23443 1.91162 7.208 1.93413C7.15439 1.98264 7.08383 2.00793 7.01171 2.00445H2.33595V3.72724H6.27565C6.34798 3.72967 6.41728 3.75698 6.47193 3.80459C6.49929 3.82673 6.52158 3.85452 6.53731 3.88606C6.55303 3.9176 6.56182 3.95217 6.56306 3.98741V5.47816C6.56314 5.51294 6.55565 5.54731 6.54113 5.57889C6.5266 5.61047 6.50537 5.63848 6.47894 5.66098C6.42278 5.71066 6.35052 5.73816 6.27565 5.73833H2.33595V7.58066H7.01171C7.04791 7.57988 7.08389 7.58631 7.11759 7.59959C7.15128 7.61287 7.18201 7.63273 7.208 7.65801C7.23443 7.68052 7.25565 7.70854 7.27018 7.74012C7.28471 7.77169 7.29219 7.80607 7.29211 7.84085V9.33159C7.29219 9.36636 7.28471 9.40074 7.27018 9.43232C7.25565 9.46389 7.23443 9.49191 7.208 9.51441C7.18201 9.5397 7.15128 9.55955 7.11759 9.57283C7.08389 9.58611 7.04791 9.59254 7.01171 9.59176H0.288973C0.213852 9.59294 0.141128 9.56527 0.0856836 9.51441C0.0553177 9.48901 0.0317284 9.45643 0.0170433 9.4196C0.00235816 9.38278 -0.00295787 9.34286 0.00156522 9.30345Z" fill="white"/>
  </g>
  <g transform="translate(41.903,14.563) scale(1.000879,0.999957)">
    <path d="M0.000116528 9.30314V0.260237C3.80473e-05 0.22546 0.00752103 0.191084 0.02205 0.159507C0.036579 0.12793 0.0578007 0.0999174 0.0842349 0.0774143C0.110218 0.0521278 0.140948 0.0322694 0.174643 0.0189912C0.208338 0.00571306 0.24433 -0.000720753 0.280524 6.40531e-05H7.01027C7.04646 -0.000720753 7.08245 0.00571306 7.11615 0.0189912C7.14984 0.0322694 7.18057 0.0521278 7.20655 0.0774143C7.23299 0.0999174 7.25421 0.12793 7.26874 0.159507C7.28327 0.191084 7.29076 0.22546 7.29068 0.260237V1.75099C7.29076 1.78576 7.28327 1.82014 7.26874 1.85172C7.25421 1.88329 7.23299 1.91131 7.20655 1.93381C7.18057 1.9591 7.14984 1.97896 7.11615 1.99223C7.08245 2.00551 7.04646 2.01195 7.01027 2.01116H2.3345V3.70583H6.2742C6.34717 3.70501 6.41758 3.73276 6.47049 3.78318C6.4977 3.80501 6.51947 3.83289 6.53407 3.86463C6.54867 3.89636 6.55571 3.93107 6.55461 3.966V5.45674C6.5547 5.49085 6.54792 5.52464 6.53466 5.55605C6.52141 5.58747 6.50197 5.61588 6.4775 5.63957C6.42065 5.68729 6.34828 5.71231 6.2742 5.70989H2.3345V7.55925H7.01027C7.08239 7.55578 7.15295 7.58106 7.20655 7.62958C7.23317 7.65345 7.25442 7.68272 7.26893 7.71545C7.28343 7.74817 7.29084 7.78361 7.29068 7.81943V9.30314C7.2918 9.33909 7.28481 9.37485 7.27025 9.40772C7.25568 9.44059 7.23391 9.46974 7.20655 9.493C7.15295 9.54152 7.08239 9.5668 7.01027 9.56332H0.280524C0.208406 9.5668 0.13784 9.54152 0.0842349 9.493C0.056877 9.46974 0.0351069 9.44059 0.0205418 9.40772C0.00597662 9.37485 -0.00100464 9.33909 0.000116528 9.30314Z" fill="white"/>
  </g>
  <g transform="translate(46.376,3.503) scale(1.000576,0.999790)">
    <path d="M1.47744e-08 9.28207V0.27433C-1.19861e-05 0.237717 0.00728711 0.20147 0.0214628 0.167731C0.0356386 0.133992 0.0564064 0.10344 0.0825407 0.0778804C0.108675 0.0523207 0.139645 0.032271 0.173628 0.0189101C0.207611 0.00554913 0.243919 -0.000848605 0.280407 9.01966e-05H4.94917C5.6825 0.0206212 6.38387 0.305648 6.92465 0.802901C7.46544 1.30015 7.8094 1.9763 7.89343 2.70733C7.95469 3.2712 7.82904 3.8396 7.53591 4.32465C6.57552 5.60443 6.39326 5.82242 6.39326 5.82242L8.30703 9.16956C8.32873 9.21002 8.33966 9.25542 8.33877 9.30136C8.33788 9.3473 8.32519 9.39223 8.30194 9.43181C8.27868 9.4714 8.24565 9.5043 8.20602 9.52734C8.16639 9.55038 8.1215 9.56278 8.0757 9.56334H5.88853L3.83455 5.71695C3.80351 5.67136 3.7869 5.61745 3.7869 5.56224C3.7869 5.50704 3.80351 5.45312 3.83455 5.40754L5.10339 3.87461C5.20361 3.74698 5.27599 3.59966 5.31584 3.44219C5.35569 3.28472 5.36212 3.1206 5.33473 2.96048C5.20854 2.55967 4.98422 2.01821 3.73641 1.96196H2.33438V9.268C2.33532 9.30738 2.32839 9.34654 2.31402 9.38319C2.29964 9.41983 2.2781 9.45322 2.25066 9.4814C2.22323 9.50957 2.19046 9.53196 2.15427 9.54724C2.11809 9.56252 2.07922 9.57039 2.03996 9.57038H0.294425C0.217538 9.5704 0.143694 9.54025 0.0886752 9.48637C0.0336567 9.4325 0.00183066 9.35917 1.47744e-08 9.28207V9.28207Z" fill="white"/>
  </g>
  <g transform="translate(0.037,0.008) scale(1.000019,1.000027)">
    <path d="M1.40975 2.50332L21.571 2.58067C21.5801 2.58033 21.5891 2.58255 21.597 2.58708C21.605 2.5916 21.6115 2.59825 21.6159 2.60629C21.6202 2.61432 21.6223 2.62342 21.6218 2.63256C21.6213 2.6417 21.6182 2.65051 21.613 2.65802L15.6053 13.1495C15.5983 13.1676 15.5983 13.1876 15.6053 13.2057L17.0073 15.5473C17.0132 15.5535 17.0203 15.5584 17.0281 15.5617C17.036 15.5651 17.0444 15.5668 17.0529 15.5668C17.0614 15.5668 17.0699 15.5651 17.0777 15.5617C17.0855 15.5584 17.0926 15.5535 17.0985 15.5473L25.9523 0.0773503C25.9557 0.0690365 25.957 0.0600314 25.9562 0.0510947C25.9554 0.042158 25.9525 0.033547 25.9477 0.0259766C25.9429 0.0184061 25.9363 0.0120997 25.9286 0.00758052C25.9209 0.00306131 25.9122 0.000462014 25.9032 0H0.0497805C0.0404953 0.00105298 0.0316199 0.00441693 0.0239601 0.00978547C0.0163003 0.015154 0.0100991 0.0223569 0.00592024 0.0307405C0.00174133 0.0391242 -0.00028253 0.0484222 3.17359e-05 0.0577901C0.000346002 0.0671579 0.00298864 0.0762953 0.00771995 0.0843782L1.40975 2.48223C1.40842 2.48919 1.40842 2.49635 1.40975 2.50332V2.50332Z" fill="white"/>
  </g>
  <g transform="translate(1.982,3.459) scale(1.000125,1.000053)">
    <path d="M14.4534 20.0336L4.41487 2.74242C4.40736 2.73085 4.40308 2.71748 4.40246 2.7037C4.40183 2.68991 4.4049 2.67622 4.41134 2.66402C4.41778 2.65183 4.42735 2.64158 4.43906 2.63434C4.45078 2.62711 4.46421 2.62315 4.47796 2.62288H16.5214C16.5359 2.62314 16.5501 2.61933 16.5625 2.61187C16.5749 2.60441 16.5849 2.5936 16.5915 2.58068L18.0286 0.112525C18.0347 0.100625 18.0375 0.0873533 18.037 0.074005C18.0364 0.0606567 18.0324 0.0476845 18.0253 0.0363546C18.0182 0.0250247 18.0084 0.0157221 17.9967 0.00935336C17.985 0.00298457 17.9718 -0.000233389 17.9585 1.31748e-05H0.0755835C0.0618297 0.000286817 0.0483995 0.00424871 0.0366851 0.0114832C0.0249708 0.0187177 0.0153986 0.0289607 0.00896209 0.0411561C0.00252558 0.0533515 -0.000542144 0.0670549 7.85241e-05 0.0808398C0.000699192 0.0946248 0.00498572 0.107989 0.012492 0.119553L12.6308 22.0447C12.6652 22.1078 12.7159 22.1604 12.7776 22.1971C12.8392 22.2337 12.9096 22.2531 12.9813 22.2531C13.053 22.2531 13.1233 22.2337 13.185 22.1971C13.2467 22.1604 13.2974 22.1078 13.3318 22.0447L14.4394 20.111L14.4534 20.0336Z" fill="white"/>
  </g>
  <g transform="translate(8.084,0.026) scale(1.000169,1.000029)">
    <path d="M19.065 0.000165215L9.05894 17.3419C9.05375 17.3491 9.0469 17.355 9.03898 17.3591C9.03106 17.3632 9.02228 17.3653 9.01337 17.3653C9.00446 17.3653 8.99569 17.3632 8.98776 17.3591C8.97984 17.355 8.973 17.3491 8.9678 17.3419L3.00216 6.99105C2.99452 6.98731 2.98613 6.98537 2.97763 6.98537C2.96912 6.98537 2.96073 6.98731 2.95309 6.99105H0.0508856C0.0417681 6.99071 0.0327374 6.99292 0.0248072 6.99745C0.0168769 7.00197 0.0103607 7.00863 0.00599178 7.01666C0.00162286 7.0247 -0.000426476 7.03379 7.38554e-05 7.04293C0.000574187 7.05207 0.00360659 7.06088 0.00882639 7.06839L8.88368 22.5384C8.88888 22.5456 8.89572 22.5515 8.90364 22.5556C8.91156 22.5597 8.92034 22.5618 8.92925 22.5618C8.93815 22.5618 8.94693 22.5597 8.95486 22.5556C8.96278 22.5515 8.96962 22.5456 8.97481 22.5384L21.9438 0.0773839C21.9491 0.0698777 21.9521 0.0610605 21.9526 0.0519224C21.9531 0.0427842 21.951 0.0336852 21.9467 0.0256508C21.9423 0.0176163 21.9358 0.0109647 21.9279 0.00643927C21.9199 0.00191383 21.9109 -0.000304674 21.9018 3.36481e-05H19.0977C19.065 0.000151177 19.0977 -2.23637e-06 19.0852 8.96241e-05C19.0727 0.000181485 19.072 0.00146522 19.065 0.000165215Z" fill="white"/>
  </g>
</svg>
